HIERARCHY
ROOT Hips
{
	OFFSET -0.001795 -0.223333 0.028219
	CHANNELS 6 Xposition Yposition Zposition Zrotation Yrotation Xrotation 
	JOINT LeftUpLeg
	{
		OFFSET 0.069520 -0.091406 -0.006815
		CHANNELS 3 Zrotation Yrotation Xrotation
		JOINT LeftLeg
		{
			OFFSET 0.034277 -0.375199 -0.004496
			CHANNELS 3 Zrotation Yrotation Xrotation
			JOINT LeftFoot
			{
				OFFSET -0.013596 -0.397961 -0.043693
				CHANNELS 3 Zrotation Yrotation Xrotation
				JOINT LeftToe
				{
					OFFSET 0.026358 -0.055791 0.119288
					CHANNELS 3 Zrotation Yrotation Xrotation
					End Site
					{
						OFFSET 0.000000 0.000000 0.000000
					}
				}
			}
		}
	}
	JOINT RightUpLeg
	{
		OFFSET -0.067670 -0.090522 -0.004320
		CHANNELS 3 Zrotation Yrotation Xrotation
		JOINT RightLeg
		{
			OFFSET -0.038290 -0.382569 -0.008850
			CHANNELS 3 Zrotation Yrotation Xrotation
			JOINT RightFoot
			{
				OFFSET 0.015774 -0.398415 -0.042312
				CHANNELS 3 Zrotation Yrotation Xrotation
				JOINT RightToe
				{
					OFFSET -0.025372 -0.048144 0.123348
					CHANNELS 3 Zrotation Yrotation Xrotation
					End Site
					{
						OFFSET 0.000000 0.000000 0.000000
					}
				}
			}
		}
	}
	JOINT Spine
	{
		OFFSET -0.002533 0.108963 -0.026696
		CHANNELS 3 Zrotation Yrotation Xrotation
		JOINT Spine1
		{
			OFFSET 0.005487 0.135180 0.001092
			CHANNELS 3 Zrotation Yrotation Xrotation
			JOINT Spine2
			{
				OFFSET 0.001457 0.052922 0.025425
				CHANNELS 3 Zrotation Yrotation Xrotation
				JOINT Neck
				{
					OFFSET -0.002778 0.213870 -0.042857
					CHANNELS 3 Zrotation Yrotation Xrotation
					JOINT Head
					{
						OFFSET 0.005152 0.064970 0.051349
						CHANNELS 3 Zrotation Yrotation Xrotation
						End Site
						{
							OFFSET 0.000000 0.000000 0.000000
						}
					}
				}
				JOINT LeftShoulder
				{
					OFFSET 0.078845 0.121749 -0.034090
					CHANNELS 3 Zrotation Yrotation Xrotation
					JOINT LeftArm
					{
						OFFSET 0.090977 0.030469 -0.008868
						CHANNELS 3 Zrotation Yrotation Xrotation
						JOINT LeftForeArm
						{
							OFFSET 0.259612 -0.012772 -0.027456
							CHANNELS 3 Zrotation Yrotation Xrotation
							JOINT LeftHand
							{
								OFFSET 0.249234 0.008986 -0.001171
								CHANNELS 3 Zrotation Yrotation Xrotation
								End Site
								{
									OFFSET 0.000000 0.000000 0.000000
								}
							}
						}
					}
				}
				JOINT RightShoulder
				{
					OFFSET -0.081759 0.118833 -0.038615
					CHANNELS 3 Zrotation Yrotation Xrotation
					JOINT RightArm
					{
						OFFSET -0.096012 0.032551 -0.009143
						CHANNELS 3 Zrotation Yrotation Xrotation
						JOINT RightForeArm
						{
							OFFSET -0.253742 -0.013329 -0.021401
							CHANNELS 3 Zrotation Yrotation Xrotation
							JOINT RightHand
							{
								OFFSET -0.255298 0.007772 -0.005559
								CHANNELS 3 Zrotation Yrotation Xrotation
								End Site
								{
									OFFSET 0.000000 0.000000 0.000000
								}
							}
						}
					}
				}
			}
		}
	}
}
MOTION
Frames: 5
Frame Time: 0.050000
0.000000 0.932913 0.000000 0.668921 18.546936 8.259617 10.011143 -0.921638 -11.824278 -0.778358 0.023211 0.692531 11.923108 24.252956 22.954728 0.000000 0.000000 0.000000 -8.696660 -0.362369 -21.646088 5.201669 -1.091791 8.984476 -0.469222 -4.019646 16.134335 0.000000 0.000000 0.000000 7.256622 -4.449243 26.666290 -5.199953 2.247677 -19.277755 -0.689385 -1.558337 24.330077 3.809740 -0.408001 -17.102502 0.000000 0.000000 0.000000 2.941346 -32.824787 10.260160 -7.531381 -48.806978 -2.269657 35.217818 -25.941931 -7.792297 0.000000 0.000000 0.000000 19.019869 15.886232 10.143891 48.229875 37.840159 8.404437 -2.311273 55.013421 3.424610 0.000000 0.000000 0.000000 
0.000073 0.932430 0.001722 0.378902 18.179515 9.475036 10.046914 -0.957951 -12.469964 -0.166276 0.013771 -0.276407 12.216200 24.585172 23.367248 0.000000 0.000000 0.000000 -9.318931 -0.555828 -23.298844 7.106054 -1.571085 9.522145 -0.651296 -4.444923 16.184109 0.000000 0.000000 0.000000 5.143912 -3.905393 27.196010 -3.274052 1.724747 -20.662882 -1.200380 0.437427 25.392997 2.279076 0.944989 -17.266117 0.000000 0.000000 0.000000 3.774685 -30.956565 9.497526 -8.099893 -51.873537 -2.650953 35.340229 -23.408918 -7.136586 0.000000 0.000000 0.000000 23.155392 14.016431 10.616222 44.842646 36.535934 6.375196 4.936191 58.700056 8.061047 0.000000 0.000000 0.000000 
0.000164 0.931342 0.003053 -0.184307 18.619073 9.603552 10.658103 -0.995586 -13.278708 -0.065127 -0.024857 0.552254 12.150472 24.562462 22.866127 0.000000 0.000000 0.000000 -8.653451 -0.394654 -22.921781 7.012116 -1.524963 8.959508 -0.956386 -4.702937 14.928219 0.000000 0.000000 0.000000 5.614958 -4.273444 28.062551 -5.002261 2.092525 -21.830232 -0.716175 -0.442063 25.844133 0.392926 2.189026 -18.206532 0.000000 0.000000 0.000000 4.610502 -31.091154 9.442218 -7.039725 -52.274835 -3.037766 33.822170 -20.446192 -5.861598 0.000000 0.000000 0.000000 22.201294 13.560453 9.904248 46.894473 34.268501 6.018018 6.455378 57.635802 8.682234 0.000000 0.000000 0.000000 
0.000119 0.932500 0.004196 -0.802955 19.090260 9.767892 11.279866 -1.023309 -13.819412 0.097995 -0.045195 0.738590 11.895211 24.343888 22.964354 0.000000 0.000000 0.000000 -8.089410 -0.286851 -22.818861 7.315628 -1.591205 8.616863 -1.331675 -5.280342 14.758434 0.000000 0.000000 0.000000 5.352078 -4.329339 28.501306 -5.157831 2.100908 -22.331370 -0.653718 -0.365888 25.831094 -0.178217 2.578720 -17.943092 0.000000 0.000000 0.000000 5.470209 -32.828671 9.758603 -5.269916 -51.140281 -3.647287 32.798924 -17.247598 -4.823542 0.000000 0.000000 0.000000 22.945781 13.417438 10.068819 45.701829 31.907753 4.702810 7.414897 56.758296 8.915760 0.000000 0.000000 0.000000 
0.000169 0.932105 0.005350 -1.057928 20.055986 10.229330 11.676361 -1.093775 -14.763891 0.056492 -0.054664 1.014398 11.462556 23.970199 22.570598 0.000000 0.000000 0.000000 -7.952308 -0.332391 -23.139364 7.535380 -1.656512 8.358922 -1.898767 -6.194348 15.170225 0.000000 0.000000 0.000000 4.450120 -4.415345 29.895894 -5.053226 2.057141 -23.068239 -0.932768 -0.737250 25.541382 -0.500491 2.863780 -19.232200 0.000000 0.000000 0.000000 5.078341 -32.911673 9.887363 -3.547282 -52.013139 -4.371424 33.754150 -15.374732 -4.441238 0.000000 0.000000 0.000000 22.791920 13.004526 9.831409 47.186508 30.523003 4.470681 7.894795 54.173337 8.664463 0.000000 0.000000 0.000000 
